<?xml version="1.0" encoding="UTF-8" ?>
<!DOCTYPE svg PUBLIC "-//W3C//DTD SVG 1.1//EN" "http://www.w3.org/Graphics/SVG/1.1/DTD/svg11.dtd">
<svg width="642pt" height="618pt" viewBox="0 0 642 618" version="1.1" xmlns="http://www.w3.org/2000/svg">
<path fill="#001300" d=" M 0.00 0.00 L 642.00 0.00 L 642.00 618.00 L 0.00 618.00 L 0.00 0.00 Z" />
<path fill="#b1b0af" d=" M 54.69 61.70 C 61.70 49.24 77.24 42.52 91.12 45.72 C 98.93 47.76 106.11 53.15 109.04 60.84 C 113.54 71.80 105.02 85.82 93.14 86.59 C 88.27 87.09 82.34 85.97 79.62 81.46 C 76.28 76.35 78.91 68.59 84.80 66.79 C 89.19 64.67 95.93 68.47 94.75 73.69 C 93.65 75.39 91.40 75.49 89.70 76.19 C 91.05 75.08 92.42 73.99 93.79 72.90 C 92.93 68.98 88.22 66.85 84.70 68.76 C 79.43 70.93 78.34 78.78 82.68 82.38 C 87.81 86.10 95.05 85.51 100.29 82.34 C 106.47 77.96 110.06 69.59 107.55 62.20 C 104.98 54.47 97.64 49.02 89.85 47.33 C 79.18 45.33 67.46 49.02 60.20 57.18 C 49.69 68.98 49.17 87.21 56.08 100.93 C 61.04 111.25 70.54 118.97 81.38 122.43 C 77.23 119.11 72.58 115.76 70.65 110.59 C 66.96 100.89 75.18 87.67 86.14 89.12 C 89.24 89.20 91.72 91.26 93.86 93.30 C 93.62 95.41 94.45 98.08 92.68 99.70 C 91.21 101.31 88.92 101.45 86.94 101.98 C 89.34 100.89 93.06 98.26 90.62 95.36 C 87.22 90.95 80.41 94.27 78.90 98.74 C 77.22 103.92 79.46 109.39 82.16 113.79 C 86.06 119.87 92.97 123.01 99.67 124.98 C 99.18 125.95 98.69 126.91 98.21 127.88 C 90.37 126.48 82.29 125.48 75.09 121.86 C 64.21 116.90 55.71 107.26 52.00 95.92 C 48.47 84.82 48.73 71.94 54.69 61.70 Z" />
<path fill="#b9c5b7" d=" M 536.93 48.95 C 549.42 41.41 566.72 45.14 576.36 55.68 C 582.38 61.90 585.22 70.46 586.05 78.93 C 587.01 97.26 575.91 116.03 558.53 122.65 C 557.96 122.49 556.81 122.18 556.23 122.02 C 561.66 119.47 567.03 116.58 571.37 112.37 C 578.93 104.90 583.37 94.55 584.22 84.01 C 584.87 73.55 581.26 62.68 573.72 55.27 C 567.58 49.74 559.34 46.57 551.06 46.72 C 543.25 46.65 535.54 50.50 530.85 56.73 C 527.60 61.12 526.06 67.05 527.96 72.32 C 529.88 77.81 534.06 83.11 540.02 84.33 C 545.44 86.04 552.12 84.60 555.35 79.63 C 555.40 77.34 555.40 75.05 555.36 72.77 C 553.63 70.87 551.94 68.46 549.18 68.15 C 545.84 67.46 541.19 70.15 542.47 73.98 C 543.67 74.64 544.87 75.32 546.05 76.02 C 544.55 75.65 543.09 75.25 541.62 74.82 C 541.33 74.13 540.75 72.73 540.46 72.03 C 541.34 69.87 542.54 67.53 545.01 66.90 C 549.96 64.72 555.18 68.54 557.24 72.97 C 557.08 75.95 557.87 79.34 555.81 81.87 C 552.39 86.52 545.82 87.31 540.52 86.27 C 531.98 84.76 526.01 76.42 525.26 68.11 C 525.15 60.17 530.24 52.88 536.93 48.95 Z" />
<path fill="#b1b0b0" d=" M 218.34 57.45 C 231.63 54.11 245.66 57.10 258.26 61.79 C 267.42 65.13 275.39 70.92 282.58 77.42 C 293.02 86.04 301.65 96.75 308.35 108.50 C 308.80 109.46 309.58 110.38 309.55 111.50 L 309.59 113.68 C 300.37 100.20 289.57 87.45 275.89 78.31 C 265.46 71.26 253.34 66.63 240.77 65.52 C 232.56 64.24 224.06 66.52 217.26 71.18 C 213.06 74.08 209.26 78.06 208.00 83.15 C 207.22 85.78 208.17 88.48 208.63 91.08 C 225.60 84.52 244.41 81.63 262.32 85.81 C 281.17 90.15 299.09 100.71 310.34 116.66 L 309.83 117.85 C 303.99 110.95 297.92 102.44 288.34 100.99 C 289.03 100.50 289.73 100.02 290.43 99.54 C 278.25 91.97 264.41 86.72 250.00 85.90 C 241.13 85.17 232.20 86.27 223.56 88.28 C 225.17 90.18 226.65 92.44 226.61 95.03 C 226.86 100.10 222.09 104.63 217.05 104.23 C 210.59 104.22 205.54 99.87 200.88 95.99 C 200.37 95.80 199.35 95.41 198.84 95.21 C 199.27 94.98 200.15 94.51 200.59 94.28 C 192.66 80.04 203.26 61.22 218.34 57.45 Z" />
<path fill="#b1b0af" d=" M 359.27 72.26 C 370.43 63.00 384.70 58.23 398.92 56.38 C 407.78 55.56 417.44 55.85 425.08 60.99 C 435.83 67.68 441.21 82.75 435.16 94.25 C 454.03 102.50 472.04 112.82 491.73 119.09 C 492.06 118.90 492.72 118.54 493.06 118.35 C 493.50 118.59 494.39 119.08 494.83 119.32 C 496.44 120.29 498.19 120.98 500.03 121.38 C 510.49 123.90 521.20 125.79 531.99 125.62 C 539.10 124.54 546.42 121.82 551.44 116.46 C 555.39 111.72 558.41 105.40 556.98 99.11 C 555.89 96.07 553.00 93.84 549.88 93.24 C 547.49 92.84 545.53 94.55 544.16 96.28 C 544.18 96.88 544.20 98.08 544.22 98.67 C 545.60 99.84 547.00 100.98 548.41 102.13 C 545.95 101.41 543.06 100.67 541.91 98.09 C 540.54 96.10 541.62 93.65 543.00 92.00 C 546.43 88.85 551.76 88.18 556.01 89.93 C 562.29 92.46 565.77 99.46 565.81 105.97 C 565.60 112.83 560.49 118.43 554.77 121.61 C 555.13 121.71 555.86 121.92 556.23 122.02 C 556.81 122.18 557.96 122.49 558.53 122.65 C 552.04 125.73 544.82 126.60 537.81 127.76 C 531.04 128.79 524.22 127.78 517.56 126.59 C 509.44 125.56 501.43 123.82 493.59 121.51 C 484.82 128.88 472.67 131.52 461.59 128.65 C 446.42 124.51 431.46 119.53 416.05 116.26 C 407.56 114.29 398.90 113.28 390.29 112.02 C 391.01 113.23 391.73 114.45 392.46 115.66 C 392.49 116.12 392.55 117.02 392.58 117.48 C 394.28 120.98 393.54 125.33 393.00 129.10 C 392.57 129.92 392.15 130.75 391.74 131.59 C 390.03 135.62 386.89 138.86 383.47 141.50 C 376.92 145.71 367.20 144.70 361.93 138.88 C 358.09 134.21 361.91 126.93 367.15 125.34 C 371.15 124.33 375.17 127.21 376.37 130.99 C 375.93 132.01 375.52 133.03 375.12 134.07 C 374.58 134.34 373.51 134.89 372.97 135.17 C 373.90 133.77 374.85 132.38 375.83 131.01 C 374.16 128.71 372.13 125.93 368.94 126.07 C 365.37 125.78 363.42 129.21 361.50 131.61 C 361.69 133.97 360.94 136.85 362.91 138.67 C 367.68 143.37 375.52 144.45 381.53 141.61 C 386.76 138.80 390.05 133.57 392.36 128.27 C 392.61 123.95 392.77 119.54 391.34 115.39 C 390.43 114.12 389.89 111.98 387.94 112.11 C 372.92 111.05 357.59 112.40 343.32 117.41 C 342.86 116.70 341.94 115.28 341.49 114.57 C 354.28 108.98 368.02 105.46 381.99 104.76 C 369.76 96.08 352.53 96.47 339.75 103.80 C 336.08 106.28 333.09 109.61 329.99 112.74 L 330.16 110.65 C 341.17 98.06 356.70 89.82 372.84 85.89 C 391.01 81.54 410.07 84.57 427.32 91.11 C 427.51 86.87 428.36 82.13 425.66 78.46 C 420.45 70.65 411.14 66.17 401.97 65.23 C 384.48 64.93 367.36 71.74 353.84 82.65 C 342.27 91.87 332.60 103.37 324.91 115.97 L 324.61 113.81 L 324.19 114.53 C 332.15 97.78 344.62 83.51 359.27 72.26 Z" />
<path fill="#011300" d=" M 217.26 71.18 C 224.06 66.52 232.56 64.24 240.77 65.52 C 253.34 66.63 265.46 71.26 275.89 78.31 C 289.57 87.45 300.37 100.20 309.59 113.68 C 309.92 114.48 310.26 115.28 310.57 116.09 L 310.34 116.66 C 299.09 100.71 281.17 90.15 262.32 85.81 C 244.41 81.63 225.60 84.52 208.63 91.08 C 208.17 88.48 207.22 85.78 208.00 83.15 C 209.26 78.06 213.06 74.08 217.26 71.18 Z" />
<path fill="#011300" d=" M 353.84 82.65 C 367.36 71.74 384.48 64.93 401.97 65.23 C 411.14 66.17 420.45 70.65 425.66 78.46 C 428.36 82.13 427.51 86.87 427.32 91.11 C 410.07 84.57 391.01 81.54 372.84 85.89 C 356.70 89.82 341.17 98.06 330.16 110.65 C 328.53 112.54 326.77 114.32 324.91 115.97 C 332.60 103.37 342.27 91.87 353.84 82.65 Z" />
<path fill="#acb2ab" d=" M 138.44 81.43 C 144.45 75.01 154.08 72.29 162.55 74.66 C 165.07 75.41 167.39 76.89 168.95 79.03 C 172.10 83.24 174.50 88.51 173.58 93.89 C 172.31 100.39 162.10 101.85 158.59 96.54 C 157.09 94.93 157.84 92.53 157.58 90.57 C 159.11 92.61 159.98 95.37 162.19 96.81 C 165.05 97.69 169.16 97.59 170.71 94.55 C 172.25 91.89 171.09 88.77 170.22 86.09 C 168.77 82.53 166.53 78.81 162.77 77.34 C 155.43 74.38 146.83 77.08 141.10 82.15 C 136.09 86.55 135.02 93.66 135.27 99.98 C 135.48 106.99 138.62 113.70 143.24 118.89 C 144.53 119.10 145.75 118.35 146.98 118.05 C 164.96 112.08 181.37 102.37 198.84 95.21 C 199.35 95.41 200.37 95.80 200.88 95.99 C 182.26 104.36 164.31 114.39 144.84 120.74 C 149.31 124.01 154.86 125.46 160.37 125.08 C 157.52 125.71 154.70 126.50 151.90 127.33 L 151.64 127.40 C 148.31 125.81 145.11 123.90 142.32 121.46 C 134.19 123.79 125.91 125.59 117.51 126.68 C 111.15 127.86 104.67 128.63 98.21 127.88 C 98.69 126.91 99.18 125.95 99.67 124.98 C 101.42 125.26 103.17 125.63 104.96 125.66 C 117.12 125.51 129.17 123.26 140.84 119.91 C 135.20 113.79 132.16 105.37 132.68 97.05 C 132.99 91.48 134.39 85.52 138.44 81.43 Z" />
<path fill="#acb8ac" d=" M 470.58 75.70 C 482.35 70.24 498.83 77.11 501.83 90.11 C 502.55 93.97 503.83 97.92 502.86 101.85 C 501.98 108.21 499.84 115.04 494.83 119.32 C 494.39 119.08 493.50 118.59 493.06 118.35 C 499.06 110.89 501.93 100.93 499.70 91.50 C 497.41 79.89 483.08 73.10 472.41 77.50 C 467.94 79.35 465.96 84.30 464.57 88.58 C 464.20 90.87 463.73 93.70 465.48 95.57 C 467.39 97.57 470.42 97.40 472.92 96.98 C 475.70 95.78 476.53 92.51 478.28 90.29 C 478.70 93.45 477.81 97.20 474.79 98.81 C 471.25 100.26 466.48 100.16 463.78 97.13 C 462.23 95.77 462.29 93.58 461.81 91.73 C 462.23 85.47 465.19 79.14 470.58 75.70 Z" />
<path fill="#011300" d=" M 347.27 98.13 C 358.32 92.01 370.30 87.16 383.00 86.10 C 392.61 85.10 402.35 85.95 411.72 88.26 C 409.39 91.12 408.78 94.82 409.56 98.38 C 410.75 102.28 415.04 104.55 418.97 104.23 C 424.94 103.84 430.33 100.42 434.08 95.88 C 453.05 103.91 470.98 114.42 490.68 120.69 C 485.94 124.30 479.72 125.83 473.85 124.76 C 461.99 123.15 451.55 116.91 440.61 112.50 C 425.99 107.26 410.48 104.90 395.01 104.25 C 391.04 104.00 387.04 104.64 383.11 104.13 C 373.28 97.67 360.43 95.60 349.20 99.19 C 348.55 98.84 347.90 98.49 347.27 98.13 Z" />
<path fill="#021302" d=" M 209.20 92.90 C 213.51 91.18 217.96 89.87 222.41 88.55 C 224.79 91.58 224.03 97.00 219.88 97.99 C 215.46 99.40 211.59 96.28 209.20 92.90 Z" />
<path fill="#031301" d=" M 411.64 93.11 C 412.02 91.61 412.38 90.10 412.73 88.59 C 417.25 89.60 421.63 91.13 426.02 92.59 C 424.52 97.29 418.09 100.00 413.94 97.05 C 412.54 96.19 412.27 94.48 411.64 93.11 Z" />
<path fill="#b1b0b0" d=" M 252.15 104.45 C 260.03 98.88 269.96 96.71 279.50 97.69 C 282.36 98.00 285.18 98.69 288.08 98.74 C 288.12 99.17 288.20 100.02 288.24 100.45 C 276.88 96.55 263.56 97.86 253.54 104.65 C 272.29 105.88 290.80 111.42 306.86 121.23 C 309.38 122.70 311.84 124.31 313.96 126.34 C 311.89 127.30 310.12 125.43 308.34 124.64 C 289.60 113.79 267.38 110.36 245.99 112.18 C 245.70 112.20 245.11 112.24 244.82 112.26 C 223.96 114.11 203.77 119.95 183.78 125.87 C 173.62 129.34 162.18 131.71 151.90 127.33 C 154.70 126.50 157.52 125.71 160.37 125.08 C 172.63 123.50 183.47 117.28 194.72 112.64 C 213.06 106.17 232.74 103.49 252.15 104.45 Z" />
<path fill="#48534a" d=" M 345.93 98.86 C 347.81 97.19 347.14 101.96 345.79 99.82 L 345.93 98.86 Z" />
<path fill="#021301" d=" M 339.75 103.80 C 352.53 96.47 369.76 96.08 381.99 104.76 C 368.02 105.46 354.28 108.98 341.49 114.57 C 333.88 118.05 326.28 121.95 320.08 127.67 C 322.85 122.35 326.15 117.34 329.99 112.74 C 333.09 109.61 336.08 106.28 339.75 103.80 Z" />
<path fill="#9eab9f" d=" M 324.91 115.97 C 326.77 114.32 328.53 112.54 330.16 110.65 L 329.99 112.74 C 326.15 117.34 322.85 122.35 320.08 127.67 C 326.28 121.95 333.88 118.05 341.49 114.57 C 341.94 115.28 342.86 116.70 343.32 117.41 C 335.79 120.13 328.59 123.68 321.82 127.93 C 320.74 128.56 319.87 129.47 319.06 130.41 C 317.66 130.92 316.11 131.44 315.85 129.07 L 314.79 129.50 C 315.02 128.62 316.04 127.62 315.27 126.74 C 313.59 123.69 311.34 120.98 309.83 117.85 L 310.34 116.66 L 310.57 116.09 C 310.26 115.28 309.92 114.48 309.59 113.68 L 309.55 111.50 C 311.65 114.00 313.03 117.02 313.76 120.19 L 314.90 120.45 L 313.95 122.10 C 314.37 122.13 315.22 122.19 315.64 122.22 C 315.52 122.54 315.29 123.20 315.18 123.53 C 316.07 125.55 316.98 127.56 318.02 129.51 C 320.15 124.55 321.54 119.25 324.19 114.53 L 324.61 113.81 L 324.91 115.97 Z" />
<path fill="#9eab9f" d=" M 244.82 112.26 C 245.11 112.24 245.70 112.20 245.99 112.18 C 244.67 114.97 243.71 117.91 242.59 120.78 C 242.22 128.08 245.84 135.19 251.39 139.80 C 256.75 144.12 264.84 144.05 270.53 140.42 C 272.99 138.72 274.82 135.99 274.71 132.90 C 272.76 130.16 270.89 126.09 266.99 126.10 C 264.29 125.79 262.37 127.99 260.53 129.58 C 260.59 130.33 260.72 131.83 260.78 132.58 C 261.59 133.52 262.39 134.47 263.17 135.45 C 261.74 134.66 260.50 133.61 259.30 132.54 C 258.95 127.08 266.17 123.01 270.60 126.28 C 273.10 128.18 275.18 130.98 275.51 134.17 C 275.09 139.52 269.75 142.80 264.92 143.67 C 265.75 144.07 267.41 144.88 268.25 145.28 C 264.96 144.21 261.46 143.99 258.12 144.92 C 256.18 142.57 252.65 142.60 250.52 140.40 C 244.79 135.45 240.28 127.38 242.18 119.69 C 242.68 117.09 243.72 114.65 244.82 112.26 Z" />
<path fill="#fdfefd" d=" M 258.12 144.92 C 261.46 143.99 264.96 144.21 268.25 145.28 C 271.42 146.59 273.78 150.53 272.14 153.84 C 268.51 159.36 259.93 159.81 254.75 156.34 C 252.04 154.63 252.27 151.26 252.52 148.49 C 254.14 146.96 255.74 145.14 258.12 144.92 Z" />
<path fill="#fdfefd" d=" M 400.73 150.96 C 403.17 141.90 417.43 141.81 421.49 149.69 C 421.78 152.59 420.50 155.51 417.82 156.83 C 412.74 159.48 405.18 159.33 401.62 154.29 C 401.38 153.16 401.08 152.05 400.73 150.96 Z" />
<path fill="#fefffe" d=" M 140.22 147.89 C 145.81 159.81 151.06 171.91 156.09 184.08 C 158.31 181.96 158.87 178.76 160.18 176.09 C 163.75 167.53 167.56 159.05 170.59 150.28 C 171.56 150.45 172.52 150.63 173.49 150.81 C 173.54 153.75 172.32 156.45 171.23 159.10 C 163.19 178.49 155.38 197.97 147.26 217.33 C 141.31 204.74 135.89 191.91 130.06 179.26 C 124.07 191.90 118.70 204.85 112.23 217.24 C 103.43 195.03 94.43 172.90 85.50 150.74 C 93.79 150.72 102.07 150.73 110.36 150.73 C 114.64 161.91 118.83 173.13 122.97 184.36 C 124.00 182.82 124.89 181.20 125.63 179.50 C 130.37 168.91 135.63 158.55 140.22 147.89 Z" />
<path fill="#feffff" d=" M 177.66 150.73 C 184.20 150.73 190.74 150.71 197.29 150.74 C 197.32 158.49 197.26 166.23 197.31 173.98 C 201.56 169.72 206.96 166.24 213.11 165.82 C 218.20 165.43 224.07 166.32 227.54 170.45 C 229.89 173.37 230.68 177.26 230.65 180.95 C 230.70 192.32 230.69 203.69 230.65 215.06 C 224.20 215.04 217.75 215.06 211.30 215.04 C 211.24 200.23 211.32 185.42 211.27 170.61 C 205.34 169.42 200.70 174.39 197.52 178.69 C 196.99 190.71 197.43 202.81 197.31 214.86 C 190.77 215.22 184.21 214.99 177.66 215.05 C 177.64 193.61 177.65 172.17 177.66 150.73 Z" />
<path fill="#fffffe" d=" M 335.43 214.93 C 335.49 193.53 335.41 172.13 335.47 150.72 C 341.87 150.72 348.27 150.78 354.68 150.68 C 354.85 162.13 354.69 173.59 354.76 185.05 C 360.12 182.24 364.58 178.04 369.63 174.72 C 373.71 172.07 377.20 168.69 380.86 165.51 C 381.55 165.87 382.93 166.59 383.62 166.95 C 380.53 172.04 374.89 174.79 370.38 178.44 C 370.41 178.87 370.47 179.71 370.51 180.13 C 371.49 181.99 372.38 183.91 373.28 185.82 C 375.23 190.18 377.26 194.51 379.29 198.84 C 379.77 199.94 380.26 201.04 380.76 202.15 C 382.84 206.23 384.39 210.59 386.80 214.51 C 383.97 215.42 380.96 214.97 378.05 215.06 C 374.02 214.93 369.93 215.43 365.96 214.54 C 365.43 212.98 364.81 211.46 364.21 209.94 C 361.48 203.84 358.60 197.79 356.09 191.59 C 355.73 191.51 355.02 191.33 354.67 191.24 C 354.84 199.18 354.72 207.12 354.72 215.06 C 348.29 215.00 341.86 215.16 335.43 214.93 Z" />
<path fill="#fefffd" d=" M 289.61 176.81 C 292.64 168.64 301.91 165.30 310.00 165.71 C 315.57 166.05 322.15 166.90 325.54 171.92 C 325.16 172.42 324.39 173.40 324.00 173.90 C 318.56 170.31 311.89 167.39 305.30 169.53 C 304.94 171.57 305.12 173.75 306.97 175.05 C 313.34 181.07 321.34 185.42 326.36 192.84 C 328.01 196.66 328.00 200.97 327.10 204.98 C 322.97 213.51 312.80 216.45 303.98 215.76 C 298.38 215.25 291.86 214.06 288.47 209.08 C 288.86 208.58 289.62 207.58 290.00 207.08 C 293.80 208.35 296.69 211.65 300.85 212.09 C 305.41 212.88 311.78 213.74 314.56 209.04 C 313.42 207.34 312.21 205.67 310.62 204.37 C 303.69 198.35 295.47 193.33 290.79 185.17 C 290.46 184.12 290.11 183.08 289.75 182.04 C 289.67 180.30 289.63 178.55 289.61 176.81 Z" />
<path fill="#ffffff" d=" M 401.41 166.50 C 407.82 166.51 414.23 166.52 420.64 166.48 C 420.70 182.67 420.69 198.86 420.64 215.05 C 414.23 215.05 407.81 215.04 401.40 215.05 C 401.40 198.87 401.37 182.68 401.41 166.50 Z" />
<path fill="#fefffd" d=" M 441.32 178.51 C 449.66 163.27 474.52 160.99 485.06 175.02 C 487.17 177.57 488.12 180.76 489.22 183.82 C 489.43 186.68 489.58 189.54 489.57 192.40 C 479.57 192.44 469.58 192.34 459.58 192.45 C 459.56 198.92 459.62 205.38 459.54 211.84 C 465.99 213.15 473.19 212.55 478.63 208.56 C 480.85 207.07 482.31 204.56 484.95 203.70 C 485.43 204.49 485.97 205.26 486.54 206.01 C 475.25 221.09 447.68 218.44 440.10 200.93 C 439.63 199.65 439.15 198.36 438.65 197.09 C 437.92 190.81 437.99 184.11 441.32 178.51 Z" />
<path fill="#fefffe" d=" M 503.75 176.18 C 506.06 169.48 513.46 166.39 520.03 165.86 C 525.97 165.51 532.47 166.13 537.41 169.75 C 539.00 170.53 538.45 172.36 538.59 173.76 C 534.94 173.44 532.48 170.11 528.86 169.60 C 525.47 169.13 520.91 167.51 518.45 170.76 C 518.10 172.86 520.04 174.24 521.26 175.65 C 528.09 182.14 537.53 186.60 541.26 195.79 C 541.70 199.88 541.70 204.35 539.06 207.78 C 534.09 214.62 524.88 216.32 516.94 215.74 C 511.49 215.17 505.29 213.85 502.09 208.94 C 503.06 208.26 503.99 206.41 505.32 207.61 C 510.54 211.80 517.56 213.70 524.16 212.24 C 525.60 211.72 527.91 210.98 527.55 209.01 C 527.72 206.97 525.68 205.85 524.48 204.54 C 518.18 199.19 511.19 194.46 506.13 187.82 C 503.61 184.57 502.68 180.15 503.75 176.18 Z" />
<path fill="#ffffff" d=" M 252.56 166.50 C 258.96 166.47 265.37 166.57 271.78 166.45 C 272.51 169.91 272.18 173.46 272.23 176.97 C 272.25 189.58 272.19 202.20 272.26 214.81 C 265.70 215.27 259.13 214.97 252.56 215.04 C 252.53 198.86 252.55 182.68 252.56 166.50 Z" />
<path fill="#021301" d=" M 459.58 169.45 C 463.81 168.87 468.11 168.97 472.31 169.80 C 472.29 176.23 472.32 182.67 472.29 189.10 C 468.05 189.12 463.81 189.13 459.58 189.07 C 459.57 182.53 459.58 175.99 459.58 169.45 Z" />
<path fill="#fcfefb" d=" M 328.90 220.41 C 332.82 220.33 336.74 220.52 340.66 220.59 C 344.69 224.78 348.24 229.40 352.27 233.59 C 347.65 233.89 343.04 233.54 338.43 233.49 C 335.81 230.23 333.13 227.02 330.69 223.63 C 326.81 226.53 323.95 230.56 320.03 233.39 C 318.27 233.19 317.83 231.93 318.47 230.45 C 321.85 227.01 325.54 223.88 328.90 220.41 Z" />
<path fill="#ffffff" d=" M 230.65 226.84 C 239.46 226.97 248.27 227.15 257.09 227.31 C 264.43 227.46 272.18 228.14 278.52 232.24 C 282.56 234.67 285.45 238.56 287.39 242.80 C 287.53 243.36 287.81 244.49 287.95 245.05 C 289.65 252.15 287.98 259.88 283.98 265.93 C 278.62 273.87 268.38 277.61 259.07 276.49 C 257.08 276.39 256.66 273.02 258.88 273.02 C 263.55 272.45 268.59 273.41 272.96 271.12 C 278.90 268.79 282.59 263.14 284.35 257.24 C 285.18 250.81 285.30 243.49 280.53 238.45 C 273.61 231.27 263.07 230.46 253.68 230.47 C 253.45 250.80 253.49 271.14 252.71 291.45 C 245.05 291.34 237.38 291.24 229.72 291.16 C 229.83 284.77 229.56 278.37 230.17 272.00 C 230.39 256.95 230.48 241.89 230.65 226.84 Z" />
<path fill="#fcfefc" d=" M 440.76 234.88 C 441.74 232.60 442.74 230.32 443.73 228.05 C 448.03 228.05 452.34 228.20 456.64 228.31 C 452.57 232.30 449.19 236.92 445.11 240.90 C 442.80 240.81 440.49 240.75 438.18 240.67 C 439.07 238.75 439.93 236.82 440.76 234.88 Z" />
<path fill="#fefffe" d=" M 140.03 235.12 C 145.10 231.17 151.72 230.13 157.98 229.94 C 163.41 229.87 169.14 230.60 173.75 233.69 C 173.74 234.65 173.70 235.61 173.62 236.57 C 171.86 237.59 170.21 235.91 168.64 235.30 C 164.46 232.86 159.46 233.12 154.81 233.37 C 154.80 253.01 154.83 272.66 154.80 292.30 C 161.89 293.19 169.59 290.76 174.10 285.04 C 180.10 278.03 177.73 264.93 168.90 261.44 C 166.25 260.07 162.41 261.74 160.45 259.17 C 160.19 256.98 162.59 257.10 164.01 257.19 C 170.69 257.69 177.38 256.96 184.07 257.18 C 184.51 257.77 184.97 258.37 185.42 258.97 C 184.99 259.59 184.57 260.22 184.15 260.85 C 180.56 260.99 176.98 260.73 173.40 260.52 C 176.94 262.98 179.17 266.74 180.39 270.82 C 180.79 273.91 180.81 277.03 180.43 280.13 C 177.63 288.93 168.99 294.70 160.03 295.58 C 152.79 296.27 144.95 295.31 138.94 290.91 C 131.54 285.54 129.02 274.08 134.29 266.43 C 136.84 262.59 140.93 260.30 145.02 258.44 C 139.82 255.99 135.01 251.11 135.20 244.98 C 134.85 241.08 137.00 237.42 140.03 235.12 Z" />
<path fill="#fefffe" d=" M 377.53 239.70 C 384.13 236.97 390.72 234.20 397.33 231.48 C 397.29 234.95 397.45 238.45 396.94 241.90 C 396.80 243.50 396.68 245.10 396.56 246.70 C 400.72 247.93 405.11 246.98 409.34 247.68 C 409.44 248.62 409.54 249.55 409.64 250.50 C 405.35 251.32 400.98 250.42 396.65 250.57 C 396.41 261.07 396.48 271.58 396.12 282.07 C 395.43 285.76 395.72 289.54 395.62 293.28 C 401.12 293.34 406.74 290.35 408.02 284.67 C 409.12 284.47 410.25 284.30 411.33 284.73 C 412.07 287.64 409.96 290.09 407.96 291.90 C 401.96 297.04 393.12 297.49 385.87 295.14 C 380.95 293.58 377.62 289.05 376.69 284.09 C 376.59 276.44 376.35 268.73 377.16 261.13 C 377.31 257.46 377.32 253.79 377.39 250.13 C 374.61 249.95 371.07 250.96 369.27 248.21 C 369.69 247.79 370.53 246.97 370.95 246.55 C 373.09 246.53 375.24 246.62 377.39 246.74 C 377.44 244.39 377.48 242.05 377.53 239.70 Z" />
<path fill="#fefffe" d=" M 311.54 249.93 C 314.75 246.59 319.63 246.00 323.96 245.11 C 332.47 244.03 341.68 244.46 349.36 248.63 C 353.39 250.69 355.98 254.59 357.41 258.77 C 358.19 270.67 357.33 282.61 357.34 294.52 C 350.77 294.37 344.17 294.49 337.62 293.83 C 337.62 293.16 337.62 291.84 337.62 291.18 C 329.21 296.26 317.34 295.66 309.85 289.17 C 302.87 283.03 302.59 270.83 309.50 264.52 C 317.31 257.46 329.32 257.79 338.54 261.73 C 338.68 257.52 338.74 253.31 338.74 249.10 C 331.11 247.16 322.39 247.17 315.69 251.79 C 314.04 253.37 310.45 252.83 311.54 249.93 Z" />
<path fill="#fefffd" d=" M 417.60 262.76 C 423.83 247.65 444.88 243.07 457.86 252.07 C 460.99 254.35 463.49 257.40 465.29 260.83 C 465.91 262.87 466.55 264.91 467.22 266.94 C 467.32 269.53 467.35 272.12 467.35 274.71 C 457.36 274.59 447.37 274.28 437.38 274.03 C 437.22 277.99 437.55 281.98 436.87 285.90 C 436.73 288.42 436.68 290.94 436.63 293.46 C 442.56 294.81 449.08 294.59 454.46 291.54 C 456.79 290.28 458.53 288.25 460.58 286.62 C 461.76 285.52 463.02 287.17 463.86 287.86 C 459.38 294.68 450.83 297.67 442.95 297.57 C 432.01 297.92 420.75 291.48 416.98 280.93 C 416.59 279.32 416.20 277.70 415.75 276.11 C 415.61 273.77 415.60 271.42 415.97 269.11 C 416.44 266.98 416.99 264.86 417.60 262.76 Z" />
<path fill="#fefffd" d=" M 484.85 255.76 C 489.23 250.58 496.46 249.07 502.96 249.42 C 507.69 249.77 512.70 250.68 516.52 253.69 C 518.10 254.52 517.49 256.44 517.65 257.87 C 514.44 257.40 512.28 254.65 509.24 253.75 C 505.42 252.64 501.11 251.62 497.45 253.76 C 497.50 255.78 498.43 257.64 499.93 259.00 C 505.65 264.65 513.01 268.71 517.58 275.49 C 520.19 278.92 520.08 283.54 519.42 287.60 C 517.86 292.80 513.10 296.55 508.03 298.06 C 500.44 300.33 491.92 299.85 484.79 296.32 C 482.84 295.43 481.53 293.71 480.31 292.03 C 481.28 291.06 482.65 289.55 483.94 291.05 C 489.77 295.90 498.80 298.28 505.68 294.30 C 505.59 292.65 505.79 290.73 504.27 289.63 C 497.83 283.46 490.08 278.51 484.89 271.11 C 481.60 266.78 481.06 259.96 484.85 255.76 Z" />
<path fill="#021301" d=" M 437.65 251.31 C 441.86 250.37 446.17 250.88 450.35 251.75 C 450.38 258.17 450.24 264.58 449.66 270.97 C 445.57 270.88 441.49 270.82 437.40 270.71 C 437.43 264.24 437.66 257.77 437.65 251.31 Z" />
<path fill="#011301" d=" M 324.88 280.91 C 325.73 274.68 325.19 268.36 325.58 262.10 C 330.06 262.27 334.42 263.38 338.52 265.18 C 338.53 271.88 338.18 278.58 338.32 285.27 C 336.38 290.50 329.43 290.91 324.65 291.31 C 324.69 287.84 324.68 284.37 324.88 280.91 Z" />
<path fill="#fefbfa" d=" M 71.73 328.07 C 237.88 327.99 404.04 328.06 570.20 328.03 C 570.21 332.82 570.22 337.62 570.19 342.42 C 404.04 342.42 237.88 342.43 71.73 342.42 C 71.75 337.63 71.74 332.85 71.73 328.07 Z" />
<path fill="#b34509" d=" M 131.60 351.82 C 138.26 351.61 144.89 352.59 151.56 352.52 C 151.51 354.15 151.47 355.79 151.43 357.43 C 149.18 357.46 146.94 357.50 144.69 357.55 C 144.34 365.67 144.66 373.83 143.86 381.93 C 143.23 392.58 143.85 403.29 142.77 413.92 C 142.35 422.99 142.68 432.11 142.08 441.17 C 140.45 442.77 137.13 441.35 135.02 441.74 C 136.91 424.52 136.00 407.17 136.80 389.89 C 137.77 379.10 137.49 368.24 137.72 357.42 C 135.60 357.15 133.49 356.86 131.38 356.57 C 131.45 354.98 131.52 353.39 131.60 351.82 Z" />
<path fill="#b24410" d=" M 396.66 353.69 C 398.91 353.67 401.16 353.65 403.42 353.64 C 403.66 382.00 403.30 410.37 403.60 438.72 C 405.94 438.66 408.26 438.93 410.53 439.51 C 410.44 440.88 410.32 442.26 410.16 443.63 C 405.70 444.75 401.04 444.21 396.54 443.67 C 396.70 413.68 396.48 383.68 396.66 353.69 Z" />
<path fill="#b14508" d=" M 236.89 379.04 C 236.31 370.56 236.92 362.08 237.42 353.62 C 242.17 353.67 246.91 353.65 251.66 353.62 C 251.70 355.30 251.74 356.97 251.78 358.66 C 249.27 358.65 246.76 358.64 244.26 358.58 C 243.94 360.02 243.60 361.48 243.62 362.98 C 243.66 372.51 243.75 382.04 243.58 391.57 C 245.86 392.03 248.18 392.33 250.51 392.47 C 250.46 394.07 250.41 395.67 250.36 397.28 C 248.13 397.33 245.90 397.39 243.68 397.47 C 243.64 413.03 243.71 428.60 243.61 444.16 C 241.28 444.17 238.95 443.96 236.66 443.51 C 236.69 439.00 236.61 434.49 237.05 430.00 C 236.39 413.03 236.75 396.01 236.89 379.04 Z" />
<path fill="#a35321" d=" M 397.16 354.67 C 399.09 354.38 401.03 354.14 402.98 353.93 C 402.51 380.63 402.86 407.34 402.77 434.05 C 402.71 435.45 402.61 436.84 402.48 438.25 C 402.26 436.85 402.06 435.44 402.00 434.03 C 401.87 407.77 402.25 381.49 401.81 355.23 C 400.25 355.05 398.71 354.86 397.16 354.67 Z" />
<path fill="#914822" d=" M 162.73 383.84 C 162.49 376.78 162.53 369.67 163.59 362.66 C 165.65 362.72 167.70 362.76 169.76 362.82 L 169.75 364.42 C 168.00 364.47 166.27 364.54 164.53 364.60 C 164.32 379.81 164.21 395.02 163.36 410.22 C 162.50 401.44 163.89 392.61 162.73 383.84 Z" />
<path fill="#b64406" d=" M 176.65 363.42 C 178.70 363.41 180.74 363.41 182.79 363.41 C 182.67 379.27 183.01 395.16 181.76 410.98 C 181.78 421.82 181.49 432.66 181.39 443.50 C 179.32 443.51 177.25 443.51 175.18 443.53 C 174.93 430.52 175.54 417.51 175.47 404.51 C 173.22 404.48 170.98 404.48 168.74 404.49 C 168.23 417.46 169.06 430.51 167.47 443.41 C 165.46 443.36 163.46 443.33 161.45 443.29 C 161.53 430.19 161.31 417.05 162.36 403.98 C 162.48 397.26 162.45 390.55 162.73 383.84 C 163.89 392.61 162.50 401.44 163.36 410.22 C 164.21 395.02 164.32 379.81 164.53 364.60 C 166.27 364.54 168.00 364.47 169.75 364.42 C 169.81 376.08 169.27 387.73 169.39 399.39 C 171.45 399.42 173.51 399.46 175.58 399.51 C 175.61 394.99 175.68 390.47 176.18 385.98 C 176.60 378.47 176.37 370.94 176.65 363.42 Z" />
<path fill="#b34609" d=" M 194.31 443.79 C 194.41 417.07 194.08 390.34 194.49 363.63 C 198.81 363.71 203.12 363.70 207.44 363.70 C 207.48 365.32 207.52 366.94 207.56 368.57 C 205.34 368.95 202.36 367.85 200.83 369.94 C 200.48 379.43 200.89 388.93 200.65 398.43 C 202.95 398.61 205.26 398.80 207.56 399.03 C 207.53 400.52 207.50 402.02 207.48 403.52 C 205.20 403.78 202.94 404.09 200.68 404.45 C 200.75 415.77 200.74 427.10 200.65 438.42 C 202.94 438.73 205.22 439.07 207.51 439.42 C 207.53 440.50 207.57 442.66 207.59 443.74 C 203.19 444.40 198.72 444.36 194.31 443.79 Z" />
<path fill="#b64405" d=" M 257.54 364.39 C 259.77 363.66 262.11 363.58 264.44 363.59 C 264.60 390.47 264.56 417.36 264.46 444.24 C 262.15 444.25 259.85 444.06 257.59 443.58 C 257.67 417.19 257.76 390.79 257.54 364.39 Z" />
<path fill="#b54507" d=" M 278.59 364.53 C 280.43 363.71 283.93 362.57 284.36 365.54 C 286.93 379.24 290.06 392.85 292.28 406.63 C 294.22 392.38 292.93 377.99 293.49 363.67 C 295.13 363.65 296.78 363.64 298.43 363.62 C 299.41 365.97 299.41 368.49 298.95 370.97 C 299.76 382.61 299.10 394.31 299.29 405.98 C 298.23 414.29 300.16 422.65 298.97 430.98 C 299.45 435.18 299.29 439.41 299.34 443.63 C 297.48 443.71 295.63 443.75 293.77 443.76 C 292.03 432.84 289.44 422.06 287.51 411.18 C 287.04 407.16 286.03 403.24 284.84 399.38 C 284.28 414.37 284.59 429.38 284.64 444.37 C 282.63 444.07 280.64 443.81 278.64 443.53 C 278.77 426.69 278.66 409.84 278.69 392.99 C 278.79 386.99 278.38 380.98 279.01 375.00 C 278.66 371.52 278.63 368.02 278.59 364.53 Z" />
<path fill="#904319" d=" M 310.81 363.92 C 315.30 363.22 319.87 363.77 324.40 363.61 C 324.43 365.26 324.46 366.92 324.51 368.58 C 322.23 369.05 319.91 369.35 317.59 369.07 C 319.53 367.89 321.50 366.75 323.43 365.55 C 319.94 365.21 316.44 365.12 312.95 365.19 C 312.42 369.77 312.39 374.38 312.48 378.99 C 312.48 393.64 312.57 408.29 312.49 422.94 C 312.56 429.53 312.02 436.17 313.33 442.68 C 316.52 442.94 319.73 442.95 322.93 442.70 C 322.77 442.25 322.46 441.33 322.30 440.88 C 320.37 440.42 318.45 439.96 316.52 439.51 C 316.16 427.72 316.53 415.91 316.33 404.12 C 318.49 403.49 320.66 402.87 322.84 402.25 C 322.65 402.02 322.26 401.57 322.06 401.34 C 320.55 400.49 319.03 399.63 317.53 398.76 C 319.81 398.66 322.09 398.64 324.37 398.65 C 324.43 400.37 324.48 402.09 324.54 403.82 C 322.31 404.09 320.07 404.27 317.83 404.37 C 317.78 415.79 317.55 427.21 317.93 438.63 C 320.14 438.71 322.36 438.85 324.57 439.07 C 324.48 440.78 324.40 442.49 324.31 444.21 C 319.72 444.06 315.04 444.76 310.53 443.63 C 310.81 417.06 310.28 390.47 310.81 363.92 Z" />
<path fill="#b44508" d=" M 333.33 370.00 C 333.21 366.43 336.66 363.46 340.07 363.32 C 343.02 363.12 346.50 362.95 348.64 365.38 C 351.12 367.48 351.48 370.96 351.47 374.01 C 351.41 380.12 351.49 386.23 351.33 392.34 C 349.10 392.20 346.86 392.14 344.62 392.08 C 344.43 384.19 344.73 376.29 344.35 368.41 C 343.07 368.39 341.79 368.35 340.52 368.47 C 339.05 370.68 339.56 373.50 339.54 376.02 C 340.12 382.70 340.83 389.47 343.06 395.84 C 344.54 401.01 346.73 405.95 348.17 411.13 C 350.88 420.51 351.32 430.46 350.45 440.13 C 347.53 446.10 338.66 445.95 334.27 441.65 L 334.32 440.20 C 334.61 433.50 333.90 426.79 334.42 420.10 C 334.41 418.39 335.58 415.55 337.59 417.29 C 338.79 424.19 337.72 431.24 338.43 438.19 C 339.24 430.66 338.11 423.05 339.40 415.56 C 339.82 422.71 339.23 429.89 339.66 437.03 C 339.40 439.72 343.41 440.79 344.30 438.13 C 345.15 428.92 343.76 419.53 340.85 410.77 C 339.14 405.55 336.92 400.50 335.34 395.23 C 333.15 387.02 333.07 378.43 333.33 370.00 Z" />
<path fill="#ae450b" d=" M 364.34 368.52 C 364.38 366.88 364.43 365.25 364.49 363.62 C 371.11 363.67 377.74 363.66 384.38 363.68 C 384.41 365.27 384.45 366.85 384.49 368.45 C 382.17 368.60 379.86 368.92 377.60 369.45 C 377.63 394.35 377.58 419.24 377.63 444.14 C 375.28 444.22 372.93 444.04 370.63 443.60 C 370.73 418.84 370.59 394.07 370.70 369.31 C 368.59 368.96 366.46 368.70 364.34 368.52 Z" />
<path fill="#b3450c" d=" M 418.58 363.59 C 420.90 363.57 423.24 363.72 425.51 364.26 C 425.30 390.80 425.50 417.35 425.41 443.89 C 423.08 444.23 420.73 444.15 418.43 443.70 C 418.60 417.00 418.30 390.29 418.58 363.59 Z" />
<path fill="#b44507" d=" M 439.48 364.28 C 444.36 363.09 449.43 363.94 454.40 363.64 C 454.47 365.31 454.54 366.98 454.62 368.65 C 451.94 368.67 449.27 368.67 446.59 368.66 C 446.20 378.64 446.53 388.63 446.40 398.61 C 448.78 398.60 451.21 398.57 453.43 399.56 C 453.41 400.53 453.37 402.48 453.35 403.46 C 451.00 403.75 448.64 404.01 446.32 404.44 L 445.31 404.66 C 444.49 417.22 445.66 429.83 444.78 442.39 C 443.26 442.84 441.74 443.30 440.23 443.76 L 439.63 443.95 C 439.48 417.39 439.76 390.83 439.48 364.28 Z" />
<path fill="#b34609" d=" M 461.52 443.70 C 461.64 417.01 461.12 390.31 461.44 363.62 C 465.75 363.64 470.06 363.62 474.38 363.62 C 474.41 365.26 474.45 366.91 474.49 368.56 C 472.49 368.58 470.49 368.59 468.50 368.59 C 467.11 372.92 467.67 377.55 467.85 382.01 C 468.53 387.52 468.21 393.08 468.34 398.62 C 470.37 398.61 472.40 398.62 474.45 398.62 C 474.51 400.30 474.57 401.98 474.64 403.66 C 472.61 403.67 470.58 403.68 468.56 403.70 C 468.04 415.32 468.46 426.96 468.41 438.59 C 470.76 438.59 473.13 438.76 475.38 439.53 C 475.37 440.51 475.36 442.49 475.36 443.47 C 470.75 443.80 466.12 444.42 461.52 443.70 Z" />
<path fill="#b94405" d=" M 312.95 365.19 C 316.44 365.12 319.94 365.21 323.43 365.55 C 321.50 366.75 319.53 367.89 317.59 369.07 C 317.56 378.97 317.70 388.86 317.53 398.76 C 319.03 399.63 320.55 400.49 322.06 401.34 C 322.26 401.57 322.65 402.02 322.84 402.25 C 320.66 402.87 318.49 403.49 316.33 404.12 C 316.53 415.91 316.16 427.72 316.52 439.51 C 318.45 439.96 320.37 440.42 322.30 440.88 C 322.46 441.33 322.77 442.25 322.93 442.70 C 319.73 442.95 316.52 442.94 313.33 442.68 C 312.02 436.17 312.56 429.53 312.49 422.94 C 312.57 408.29 312.48 393.64 312.48 378.99 C 312.39 374.38 312.42 369.77 312.95 365.19 Z" />
<path fill="#140b00" d=" M 340.52 368.47 C 341.79 368.35 343.07 368.39 344.35 368.41 C 344.73 376.29 344.43 384.19 344.62 392.08 C 346.86 392.14 349.10 392.20 351.33 392.34 L 352.34 392.40 C 350.20 393.08 347.98 393.40 345.75 393.58 C 345.06 394.70 344.36 395.82 343.66 396.94 L 343.06 395.84 C 340.83 389.47 340.12 382.70 339.54 376.02 C 339.56 373.50 339.05 370.68 340.52 368.47 Z" />
<path fill="#a8551d" d=" M 316.29 369.54 C 317.69 373.55 317.00 377.84 317.13 381.99 C 317.03 387.44 317.72 393.00 316.34 398.35 C 315.55 393.92 315.75 389.42 315.85 384.96 C 315.98 379.82 315.46 374.64 316.29 369.54 Z" />
<path fill="#350700" d=" M 284.64 444.37 C 284.59 429.38 284.28 414.37 284.84 399.38 C 286.03 403.24 287.04 407.16 287.51 411.18 C 284.78 420.89 286.84 431.12 286.17 441.05 C 286.23 442.37 285.48 443.45 284.64 444.37 Z" />
<path fill="#a5511d" d=" M 445.31 404.66 L 446.32 404.44 C 446.56 417.73 446.40 431.02 446.38 444.31 C 444.32 444.16 442.27 443.98 440.23 443.76 C 441.74 443.30 443.26 442.84 444.78 442.39 C 445.66 429.83 444.49 417.22 445.31 404.66 Z" />
<path fill="#110f00" d=" M 338.37 413.33 C 339.19 412.48 340.02 411.62 340.85 410.77 C 343.76 419.53 345.15 428.92 344.30 438.13 C 343.41 440.79 339.40 439.72 339.66 437.03 C 339.23 429.89 339.82 422.71 339.40 415.56 C 337.06 415.56 334.73 415.54 332.40 415.48 C 333.68 413.42 336.30 413.76 338.37 413.33 Z" />
<path fill="#95481d" d=" M 332.40 415.48 C 334.73 415.54 337.06 415.56 339.40 415.56 C 338.11 423.05 339.24 430.66 338.43 438.19 C 337.72 431.24 338.79 424.19 337.59 417.29 C 335.58 415.55 334.41 418.39 334.42 420.10 C 333.90 426.79 334.61 433.50 334.32 440.20 L 334.12 441.33 C 331.00 433.09 333.42 424.06 332.40 415.48 Z" />
<path fill="#b1b0b0" d=" M 241.83 466.80 C 245.98 459.96 254.59 455.89 262.38 458.66 C 265.26 459.86 268.18 461.44 269.98 464.09 C 272.56 469.22 268.59 476.07 262.98 476.73 C 259.76 477.08 257.39 474.65 255.38 472.52 C 255.10 469.95 255.96 467.19 258.96 467.03 C 258.19 467.68 257.41 468.32 256.63 468.95 C 256.60 470.23 256.59 471.53 256.57 472.82 C 258.93 475.17 262.71 477.19 265.80 474.85 C 269.54 472.80 270.02 468.42 269.62 464.59 C 264.09 458.06 253.19 456.93 246.68 462.62 C 242.30 466.14 240.07 471.44 238.58 476.71 C 238.13 481.27 240.07 485.52 241.87 489.59 C 263.20 491.36 285.37 487.94 304.02 477.00 C 306.75 475.18 310.25 474.10 312.00 471.14 C 312.69 471.33 313.38 471.54 314.07 471.76 C 316.40 474.36 319.70 475.71 322.60 477.54 C 341.14 488.24 363.15 491.63 384.26 489.56 C 384.58 487.68 385.43 485.96 386.38 484.34 C 386.78 480.69 386.75 477.02 386.32 473.38 C 383.57 467.36 379.25 460.95 372.34 459.50 C 366.68 458.06 360.68 460.33 356.52 464.24 C 356.19 466.70 356.21 469.19 356.58 471.65 C 358.59 473.28 360.20 476.02 363.07 476.10 C 365.66 476.34 367.51 474.08 369.46 472.74 C 369.42 471.65 369.38 470.56 369.35 469.48 C 368.52 468.57 367.71 467.65 366.94 466.71 C 368.21 467.48 369.40 468.40 370.56 469.35 C 370.53 470.41 370.50 471.47 370.49 472.54 C 368.32 474.90 365.47 477.75 361.94 476.89 C 359.23 476.00 357.25 473.70 355.70 471.41 C 355.33 469.17 355.38 466.86 355.60 464.61 C 358.62 460.53 363.84 457.55 369.01 457.97 C 375.52 457.51 380.60 462.66 384.31 467.40 C 384.96 468.71 385.63 470.02 386.34 471.33 C 388.09 474.63 387.37 478.43 387.47 482.01 C 387.62 483.60 386.86 485.02 386.27 486.45 C 385.94 487.28 385.27 488.93 384.94 489.76 C 406.39 487.71 427.17 481.72 447.74 475.59 C 454.56 473.43 461.77 471.71 468.95 472.87 C 475.35 473.57 481.34 476.45 486.17 480.67 C 493.71 478.78 501.24 476.80 508.98 475.90 C 515.63 474.76 522.37 473.66 529.14 474.47 C 539.05 475.82 549.30 477.59 557.80 483.22 C 575.84 494.53 583.67 520.29 573.19 539.20 C 567.37 550.17 555.11 556.40 543.00 556.91 C 533.86 555.89 524.42 551.38 520.10 542.86 C 514.57 532.81 520.64 518.63 531.76 515.77 C 537.07 514.52 543.80 514.84 547.55 519.36 C 551.72 524.37 549.27 533.08 542.91 534.89 C 538.59 536.60 531.98 533.25 533.26 528.05 C 533.98 526.08 536.37 526.35 538.03 525.85 C 536.55 527.10 533.07 528.47 535.01 530.82 C 537.85 535.29 545.21 533.68 547.05 529.08 C 548.76 525.36 547.53 520.25 543.67 518.42 C 539.05 516.22 533.37 516.55 528.83 518.81 C 520.42 523.40 517.36 535.32 522.49 543.40 C 527.32 551.22 536.93 555.35 545.95 554.59 C 552.56 553.95 559.19 551.68 564.27 547.30 C 576.10 537.36 578.84 519.63 573.38 505.63 C 569.16 493.41 558.89 483.72 546.60 479.85 C 551.94 483.87 557.56 488.78 558.19 495.92 C 557.91 502.71 554.14 510.03 547.35 512.30 C 542.69 513.99 537.41 512.29 534.14 508.70 C 534.19 506.94 534.08 505.17 534.42 503.45 C 535.76 501.18 538.46 500.55 540.77 499.77 C 539.10 501.21 536.63 502.31 536.46 504.84 C 537.48 509.10 543.14 509.59 546.04 506.96 C 550.81 503.72 549.95 496.84 547.77 492.27 C 544.00 482.72 533.65 477.77 523.99 476.64 C 511.78 476.72 499.57 478.74 487.90 482.34 C 490.42 485.56 492.81 488.97 494.09 492.89 C 496.31 498.68 495.61 505.01 495.16 511.05 L 494.78 510.56 C 494.27 509.87 493.74 509.22 493.19 508.59 C 494.32 499.35 491.46 489.77 485.04 482.97 C 465.49 489.06 447.68 499.36 428.93 507.39 C 436.29 521.73 426.11 540.19 410.98 543.87 C 397.33 547.15 382.95 544.01 370.14 538.91 C 361.96 535.75 354.92 530.42 348.37 524.70 C 335.92 514.45 325.82 501.42 318.95 486.84 C 321.32 487.29 322.07 489.86 323.42 491.54 C 334.19 507.21 348.09 521.34 365.47 529.53 C 375.61 534.16 386.89 536.76 398.06 535.92 C 406.56 534.43 415.07 530.02 419.70 522.51 C 421.39 520.02 421.60 516.97 421.40 514.05 C 421.67 512.64 420.98 510.49 419.19 511.20 C 408.23 515.21 396.71 517.60 385.05 518.05 C 370.33 517.45 355.65 513.57 342.99 505.91 C 334.39 501.03 327.19 494.12 320.86 486.61 C 320.50 484.82 319.09 484.30 317.42 484.55 C 317.48 484.00 317.60 482.91 317.66 482.36 L 316.72 482.66 C 316.18 478.91 314.03 475.67 313.06 472.05 C 311.88 474.46 310.80 476.94 310.20 479.57 C 310.03 479.69 309.69 479.92 309.52 480.03 C 308.28 485.04 305.44 489.43 303.03 493.93 C 295.52 507.53 284.60 518.93 272.51 528.54 C 261.90 537.46 248.39 542.29 234.82 544.37 C 224.74 545.61 213.39 545.47 205.05 538.87 C 195.65 531.77 191.19 517.92 196.89 507.18 C 178.10 499.00 160.23 488.54 140.56 482.48 C 135.60 488.09 132.13 495.37 132.42 502.98 C 132.29 508.92 133.77 515.47 138.54 519.44 C 144.59 524.58 153.83 527.01 161.14 523.12 C 164.57 520.84 166.67 516.86 167.64 512.94 C 167.77 510.34 168.69 506.62 165.90 505.08 C 163.78 503.86 160.99 503.83 158.76 504.75 C 156.75 506.31 155.86 508.85 154.51 510.94 C 154.07 507.69 154.87 503.70 158.27 502.37 C 161.98 501.26 166.96 501.52 169.23 505.14 C 171.40 508.48 170.49 512.73 169.10 516.19 C 167.41 520.09 165.04 524.18 160.94 525.90 C 148.98 530.73 132.87 523.14 130.66 509.99 C 128.19 500.11 131.05 489.17 137.95 481.68 C 127.85 478.86 117.50 476.74 107.02 476.08 C 98.82 475.34 90.42 478.05 84.00 483.13 C 79.08 487.58 75.51 494.32 76.30 501.09 C 76.86 506.17 84.23 510.59 88.15 506.17 C 90.24 503.68 87.78 501.17 85.87 499.61 C 89.69 499.87 93.04 503.69 91.42 507.52 C 89.10 511.78 83.52 512.83 79.12 511.89 C 69.86 509.20 64.70 497.01 69.67 488.63 C 72.02 484.49 75.96 481.67 79.73 478.94 C 69.86 482.14 60.90 488.56 55.67 497.64 C 48.52 509.65 47.21 525.52 54.11 537.93 C 61.17 551.09 78.88 557.93 92.68 551.66 C 98.15 549.16 102.95 544.68 104.91 538.90 C 108.22 529.52 101.49 517.81 91.51 516.47 C 87.83 515.68 83.74 516.42 80.67 518.62 C 76.28 521.94 77.06 529.72 82.11 532.01 C 85.01 533.86 89.14 532.64 90.84 529.74 C 91.51 527.32 88.92 526.17 87.54 524.75 C 89.54 525.56 92.97 526.02 92.51 528.97 C 91.86 534.60 84.04 536.17 80.07 532.89 C 74.92 529.52 74.52 521.13 79.40 517.36 C 84.75 513.31 92.45 513.80 98.14 516.88 C 104.82 521.13 109.10 529.60 107.23 537.51 C 105.22 545.97 97.85 552.32 89.70 554.68 C 74.61 559.06 57.21 550.33 51.08 535.97 C 43.59 518.87 49.18 497.35 63.61 485.63 C 71.08 479.38 80.61 476.14 90.14 474.77 C 96.70 473.48 103.44 473.34 110.06 474.19 C 119.87 475.72 129.75 477.14 139.22 480.24 C 148.86 471.74 162.94 470.06 174.86 474.23 C 196.51 480.65 218.28 487.45 240.89 489.45 C 239.80 487.09 238.90 484.66 238.24 482.16 C 236.62 476.88 239.09 471.27 241.83 466.80 Z" />
<path fill="#021301" d=" M 309.84 474.16 C 309.60 477.68 307.18 480.44 305.33 483.27 C 299.58 491.27 292.40 499.14 282.48 501.62 C 271.71 504.41 259.00 503.94 249.81 497.03 C 270.02 495.51 289.95 489.11 306.75 477.67 C 308.08 476.80 308.86 475.35 309.84 474.16 Z" />
<path fill="#011300" d=" M 314.94 474.17 C 331.98 488.53 354.38 495.49 376.35 497.18 C 367.74 503.33 356.71 504.03 346.56 502.65 C 345.99 502.42 344.85 501.97 344.28 501.74 C 343.61 502.14 342.95 502.55 342.30 502.97 C 351.40 504.13 361.07 505.17 369.79 501.61 C 372.77 500.58 375.26 498.57 378.14 497.33 C 397.40 498.28 416.94 495.69 435.13 489.14 C 446.15 484.60 456.80 478.27 468.92 477.24 C 474.18 476.68 479.56 478.26 483.72 481.52 C 464.25 487.66 446.46 497.90 427.79 505.98 C 423.73 501.05 417.59 497.23 410.99 497.86 C 407.81 497.78 405.12 500.07 403.70 502.75 C 402.68 506.38 403.10 510.50 405.66 513.43 C 398.58 514.98 391.36 516.28 384.08 516.08 C 368.32 515.75 353.03 510.35 339.68 502.13 L 341.81 502.36 C 341.94 501.96 342.20 501.14 342.33 500.74 C 336.77 500.63 332.10 496.47 328.36 492.63 C 322.72 487.41 318.55 480.89 314.94 474.17 Z" />
<path fill="#011301" d=" M 142.06 480.92 C 145.52 478.36 149.67 476.68 154.04 476.83 C 167.39 476.66 179.03 484.09 191.01 488.94 C 208.90 495.37 228.09 497.94 247.06 497.22 C 248.57 497.15 249.73 498.39 251.03 499.00 C 261.64 505.40 275.27 505.29 286.71 501.26 C 267.52 514.53 242.63 519.16 220.02 513.20 C 221.24 510.95 222.88 508.67 222.60 505.97 C 222.79 501.35 218.51 497.31 213.95 497.38 C 207.68 497.29 201.83 500.81 197.94 505.56 C 179.20 497.59 161.47 487.28 142.06 480.92 Z" />
<path fill="#011300" d=" M 300.96 491.00 C 302.91 488.91 304.35 486.34 306.70 484.64 C 297.66 499.39 286.18 512.93 271.83 522.76 C 259.00 531.42 243.49 536.74 227.90 535.68 C 219.45 534.44 211.06 530.07 206.23 522.87 C 203.61 519.23 204.17 514.55 204.77 510.39 C 218.63 515.32 233.40 518.91 248.19 517.20 C 268.14 515.17 287.43 505.88 300.96 491.00 Z" />
<path fill="#9ea89d" d=" M 319.35 486.34 C 319.61 486.59 319.61 486.59 319.35 486.34 Z" />
<path fill="#aeb5ad" d=" M 456.88 504.90 C 460.43 500.89 468.46 500.98 470.73 506.30 C 471.66 507.82 471.22 509.63 471.13 511.30 C 469.75 509.23 468.90 506.63 466.78 505.17 C 464.14 503.93 461.30 504.96 458.71 505.77 C 456.04 510.67 458.33 516.44 461.37 520.60 C 463.33 523.44 466.65 525.04 470.04 525.27 C 477.50 526.16 485.33 522.86 489.84 516.85 C 491.69 514.44 492.03 511.32 493.19 508.59 C 493.74 509.22 494.27 509.87 494.78 510.56 C 492.94 522.88 478.31 530.33 466.83 527.08 C 460.57 525.62 457.04 519.37 455.52 513.60 C 455.17 510.71 454.63 507.19 456.88 504.90 Z" />
<path fill="#021402" d=" M 205.55 508.65 C 207.30 506.47 209.15 503.96 212.09 503.43 C 215.01 502.61 218.60 503.95 219.65 506.95 C 219.84 508.88 219.51 510.81 219.34 512.75 C 214.58 511.99 210.08 510.22 205.55 508.65 Z" />
<path fill="#031302" d=" M 408.36 504.39 C 412.56 502.08 418.13 504.76 419.76 509.07 C 415.45 510.57 411.11 512.03 406.67 513.13 C 406.28 511.72 405.87 510.31 405.46 508.92 C 406.20 507.30 406.70 505.34 408.36 504.39 Z" />
</svg>
